<svg xmlns="http://www.w3.org/2000/svg" xmlns:xlink="http://www.w3.org/1999/xlink" version="1.1" id="Layer_1" x="0px" y="0px" width="100px" height="100px" viewBox="0 0 100 100" enable-background="new 0 0 100 100" xml:space="preserve">
<path d="M99.832,32.309c0.063-0.191,0.104-0.389,0.129-0.594c0.01-0.081,0.021-0.159,0.025-0.24  c0.002-0.053,0.015-0.103,0.015-0.156c0-0.186-0.022-0.365-0.055-0.542c-0.005-0.032-0.003-0.064-0.01-0.097  c-0.053-0.268-0.144-0.52-0.259-0.76c-0.01-0.024-0.012-0.05-0.024-0.075L85.644,1.821c-0.012-0.019-0.029-0.034-0.038-0.052  c-0.125-0.239-0.277-0.464-0.461-0.667c-0.035-0.039-0.075-0.072-0.113-0.11c-0.151-0.154-0.321-0.293-0.508-0.418  c-0.064-0.044-0.129-0.086-0.196-0.126c-0.054-0.031-0.103-0.071-0.159-0.1c-0.159-0.08-0.322-0.133-0.486-0.185  c-0.033-0.011-0.066-0.029-0.1-0.038c-0.271-0.076-0.544-0.109-0.815-0.115C82.74,0.01,82.718,0,82.694,0H21.977  c-0.048,0-0.093,0.015-0.142,0.018c-0.168,0.007-0.337,0.029-0.507,0.063c-0.086,0.018-0.171,0.033-0.256,0.058  c-0.045,0.013-0.092,0.015-0.137,0.03c-0.127,0.042-0.24,0.105-0.359,0.161c-0.063,0.031-0.13,0.052-0.192,0.087  c-0.219,0.12-0.422,0.262-0.604,0.425c-0.025,0.022-0.045,0.051-0.07,0.075c-0.155,0.148-0.293,0.309-0.416,0.481  c-0.018,0.026-0.043,0.043-0.059,0.07L0.563,29.475c-0.002,0-0.002,0.002-0.003,0.004l-0.008,0.012  c-0.004,0.006-0.005,0.013-0.009,0.019c-0.159,0.241-0.276,0.509-0.368,0.79c-0.02,0.063-0.041,0.123-0.058,0.188  c-0.07,0.267-0.119,0.542-0.119,0.831c0,0.012,0.003,0.021,0.003,0.032c0.001,0.032,0.008,0.063,0.01,0.095  c0.011,0.272,0.058,0.533,0.131,0.784c0.019,0.065,0.037,0.126,0.059,0.19c0.1,0.281,0.229,0.545,0.396,0.784  c0.006,0.01,0.008,0.021,0.015,0.03L47.29,98.577c0.001,0.003,0.002,0.003,0.003,0.007l0.025,0.035  c0.181,0.254,0.401,0.467,0.637,0.654c0.068,0.053,0.141,0.096,0.213,0.145c0.197,0.132,0.403,0.244,0.625,0.33  c0.086,0.033,0.169,0.068,0.259,0.098C49.357,99.936,49.672,100,50,100s0.643-0.064,0.948-0.154c0.09-0.029,0.173-0.064,0.259-0.098  c0.22-0.086,0.428-0.198,0.623-0.33c0.073-0.049,0.146-0.092,0.216-0.145c0.236-0.188,0.454-0.4,0.634-0.654l0.027-0.035  c0.004-0.004,0.004-0.004,0.004-0.007l46.678-65.343c0.006-0.01,0.009-0.021,0.016-0.031c0.15-0.217,0.273-0.455,0.371-0.707  C99.798,32.434,99.813,32.372,99.832,32.309z M20.982,10.729l5.764,17.293H9.451L20.982,10.729z M37.475,28.023L50,9.236  l12.524,18.787H37.475z M64.314,34.614L50,84.711L35.687,34.614H64.314z M56.156,6.591h21.206l-9.087,18.175L56.156,6.591z   M32.313,23.885L26.549,6.591h17.293L32.313,23.885z M28.833,34.614l12.756,44.649L9.697,34.614H28.833z M71.168,34.614h19.135  L58.412,79.264L71.168,34.614z M74.015,28.023l8.681-17.359l8.68,17.359H74.015z"/>
</svg>